<svg width="1449" height="152" viewBox="0 0 1449 152" fill="none" xmlns="http://www.w3.org/2000/svg">
<path d="M82.9477 80.87V2.84H118.648V148.87H82.9477L47.0777 70.84V148.87H11.3777V25.62L0.157734 2.84H47.0777L82.9477 80.87ZM189.744 151.42C160.334 151.42 137.384 139.69 137.384 114.36V37.35C137.384 12.02 160.334 0.289998 189.744 0.289998C225.954 0.289998 240.404 14.23 244.144 46.02L208.274 51.12C205.724 38.37 201.814 31.74 191.444 31.74C182.434 31.74 174.784 36.33 174.784 45.34V106.37C174.784 115.38 182.434 119.97 191.444 119.97C202.834 119.97 207.424 112.66 210.144 98.89L245.844 103.99C241.934 136.97 227.144 151.42 189.744 151.42ZM347.595 31.91C339.605 31.91 335.185 38.71 333.315 48.4L300.165 43.3C303.735 13.21 317.845 0.289998 349.465 0.289998C380.405 0.289998 397.065 14.06 397.065 39.05C397.065 60.47 387.035 75.77 372.075 91.75L348.105 117.42H396.215V148.87H302.885V119.12L338.075 80.02C352.185 64.21 359.495 55.2 359.495 44.15C359.495 35.31 355.755 31.91 347.595 31.91ZM412.432 107.56V44.15C412.432 12.02 433.342 0.289998 461.392 0.289998C489.442 0.289998 510.352 12.02 510.352 44.15V107.56C510.352 139.69 489.442 151.42 461.392 151.42C433.342 151.42 412.432 139.69 412.432 107.56ZM449.832 50.44V101.27C449.832 114.19 455.102 119.97 461.392 119.97C467.682 119.97 472.952 114.19 472.952 101.27V50.44C472.952 37.52 467.682 31.74 461.392 31.74C455.102 31.74 449.832 37.52 449.832 50.44ZM573.044 31.91C565.054 31.91 560.634 38.71 558.764 48.4L525.614 43.3C529.184 13.21 543.294 0.289998 574.914 0.289998C605.854 0.289998 622.514 14.06 622.514 39.05C622.514 60.47 612.484 75.77 597.524 91.75L573.554 117.42H621.664V148.87H528.334V119.12L563.524 80.02C577.634 64.21 584.944 55.2 584.944 44.15C584.944 35.31 581.204 31.91 573.044 31.91ZM701.291 53.16C721.861 53.16 738.691 67.78 738.691 90.73V114.02C738.691 136.8 723.051 151.42 686.331 151.42C654.881 151.42 641.111 138.5 637.881 108.41L671.881 103.31C673.921 113.17 677.491 119.97 686.331 119.97C695.341 119.97 701.121 115.21 701.121 107.39V95.15C701.121 88.18 697.551 84.61 691.431 84.61C686.161 84.61 682.931 85.63 679.191 88.01H642.981V2.84H734.441V34.29H680.381V56.73C685.141 54.69 690.411 53.16 701.291 53.16ZM855.542 98.55L848.742 67.1H908.072V114.36C908.072 139.69 885.122 151.42 854.012 151.42C822.902 151.42 799.952 139.69 799.952 114.36V37.35C799.952 12.02 822.902 0.289998 854.012 0.289998C888.522 0.289998 902.972 14.23 906.712 46.02L870.842 51.12C868.292 38.37 864.382 31.74 854.012 31.74C845.002 31.74 837.352 36.33 837.352 45.34V106.37C837.352 115.38 845.002 119.97 854.012 119.97C863.022 119.97 870.672 115.38 870.672 106.37V98.55H855.542ZM1002.27 91.41H921.688V59.96H1002.27V91.41ZM1072 60.98C1108.38 74.07 1113.48 80.53 1113.48 110.62C1113.48 137.48 1098.18 148.87 1062.31 148.87H1013.69V117.42H1062.31C1073.53 117.42 1077.78 114.53 1077.78 107.73C1077.78 99.57 1075.06 96.34 1053.3 88.35C1017.43 75.26 1012.5 68.8 1012.5 40.24C1012.5 14.06 1027.63 2.84 1062.65 2.84H1103.11L1110.76 34.29H1062.65C1051.94 34.29 1048.2 36.84 1048.2 43.13C1048.2 49.59 1050.75 53.33 1072 60.98ZM1149.69 34.29H1120.28L1110.93 2.84H1219.9V34.29H1187.09V148.87H1149.69V34.29ZM1330.8 148.87H1292.89L1268.58 40.75L1257.7 89.2H1273.68L1283.88 120.48H1250.73L1244.27 148.87H1206.36L1240.36 24.77L1229.48 2.84H1290.85L1330.8 148.87ZM1424.55 98.38L1448.35 148.87H1410.1L1376.95 72.71H1398.2C1406.02 72.71 1410.1 68.46 1410.1 60.81V46.02C1410.1 38.37 1406.02 34.12 1398.2 34.12H1373.38V148.87H1337.68V25.62L1326.46 2.84H1410.1C1433.56 2.84 1445.8 15.42 1445.8 38.54V67.44C1445.8 84.61 1435.26 98.21 1424.55 98.38Z" fill="white"/>
</svg>
